<svg xmlns="http://www.w3.org/2000/svg" xmlns:xlink="http://www.w3.org/1999/xlink" width="110pt" height="218pt" viewBox="0 0 110 218"><g id="graph0" class="graph" transform="scale(1 1) rotate(0) translate(4 214)"><title>G</title><polygon fill="#fff" stroke="transparent" points="-4 4 -4 -214 106 -214 106 4 -4 4"/><g id="clust1" class="cluster"><title>cluster1</title><polygon fill="none" stroke="#000" points="8 -8 8 -202 94 -202 94 -8 8 -8"/><text x="51" y="-186.8" font-family="Times,serif" font-size="14" text-anchor="middle">com</text></g><g id="clust2" class="cluster"><title>cluster2</title><polygon fill="none" stroke="#000" points="16 -98 16 -172 86 -172 86 -98 16 -98"/><text x="51" y="-156.8" font-family="Times,serif" font-size="14" text-anchor="middle">phodal</text></g><g id="clust3" class="cluster"><title>cluster3</title><polygon fill="none" stroke="#000" points="16 -16 16 -90 86 -90 86 -16 16 -16"/><text x="51" y="-74.8" font-family="Times,serif" font-size="14" text-anchor="middle">hug</text></g><g id="node1" class="node"><title>node19</title><polygon fill="none" stroke="#000" points="78 -142 24 -142 24 -106 78 -106 78 -142"/><text x="51" y="-119.8" font-family="Times,serif" font-size="14" text-anchor="middle">Ledge</text></g><g id="node2" class="node"><title>node20</title><polygon fill="none" stroke="#000" points="78 -60 24 -60 24 -24 78 -24 78 -60"/><text x="51" y="-37.8" font-family="Times,serif" font-size="14" text-anchor="middle">Spring</text></g><g id="edge1" class="edge"><title>node19-&gt;node20</title><path fill="none" stroke="#000" d="M51,-105.64C51,-95.3 51,-81.94 51,-70.22"/><polygon fill="#000" stroke="#000" points="54.5 -70.05 51 -60.05 47.5 -70.05 54.5 -70.05"/></g></g></svg>