<svg xmlns="http://www.w3.org/2000/svg" xmlns:xlink="http://www.w3.org/1999/xlink" width="3316pt" height="404pt" viewBox="0 0 3315.59 404"><g id="graph0" class="graph" transform="scale(1 1) rotate(0) translate(4 400)"><title>G</title><polygon fill="#fff" stroke="transparent" points="-4 4 -4 -400 3311.59 -400 3311.59 4 -4 4"/><g id="node1" class="node"><title>POST /books</title><ellipse cx="731.62" cy="-378" fill="none" stroke="#000" rx="57.25" ry="18"/><text x="731.62" y="-373.8" font-family="Times,serif" font-size="14" text-anchor="middle">POST /books</text></g><g id="node2" class="node"><title>book.BookController.createBook</title><ellipse cx="731.62" cy="-306" fill="none" stroke="#000" rx="127.52" ry="18"/><text x="731.62" y="-301.8" font-family="Times,serif" font-size="14" text-anchor="middle">book.BookController.createBook</text></g><g id="edge1" class="edge"><title>POST /books-&gt;book.BookController.createBook</title><path fill="none" stroke="#000" d="M731.62,-359.7C731.62,-351.98 731.62,-342.71 731.62,-334.11"/><polygon fill="#000" stroke="#000" points="735.12 -334.1 731.62 -324.1 728.12 -334.1 735.12 -334.1"/></g><g id="node12" class="node"><title>book.BookService.createBook</title><ellipse cx="731.62" cy="-234" fill="none" stroke="#000" rx="118.33" ry="18"/><text x="731.62" y="-229.8" font-family="Times,serif" font-size="14" text-anchor="middle">book.BookService.createBook</text></g><g id="edge16" class="edge"><title>book.BookController.createBook-&gt;book.BookService.createBook</title><path fill="none" stroke="#000" d="M731.62,-287.7C731.62,-279.98 731.62,-270.71 731.62,-262.11"/><polygon fill="#000" stroke="#000" points="735.12 -262.1 731.62 -252.1 728.12 -262.1 735.12 -262.1"/></g><g id="node3" class="node"><title>book.BookFactory.create</title><ellipse cx="731.62" cy="-162" fill="none" stroke="#000" rx="98.84" ry="18"/><text x="731.62" y="-157.8" font-family="Times,serif" font-size="14" text-anchor="middle">book.BookFactory.create</text></g><g id="node4" class="node"><title>core.IdGenerator.generate</title><ellipse cx="622.62" cy="-90" fill="none" stroke="#000" rx="101.85" ry="18"/><text x="622.62" y="-85.8" font-family="Times,serif" font-size="14" text-anchor="middle">core.IdGenerator.generate</text></g><g id="edge2" class="edge"><title>book.BookFactory.create-&gt;core.IdGenerator.generate</title><path fill="none" stroke="#000" d="M706.06,-144.59C691.41,-135.18 672.82,-123.24 656.91,-113.02"/><polygon fill="#000" stroke="#000" points="658.7 -110.01 648.39 -107.55 654.92 -115.9 658.7 -110.01"/></g><g id="node5" class="node"><title>book.model.Book.create</title><ellipse cx="839.62" cy="-90" fill="none" stroke="#000" rx="96.59" ry="18"/><text x="839.62" y="-85.8" font-family="Times,serif" font-size="14" text-anchor="middle">book.model.Book.create</text></g><g id="edge9" class="edge"><title>book.BookFactory.create-&gt;book.model.Book.create</title><path fill="none" stroke="#000" d="M756.94,-144.59C771.46,-135.18 789.88,-123.24 805.64,-113.02"/><polygon fill="#000" stroke="#000" points="807.6 -115.93 814.08 -107.55 803.79 -110.05 807.6 -115.93"/></g><g id="node6" class="node"><title>book.model.Book.builder</title><ellipse cx="346.62" cy="-18" fill="none" stroke="#000" rx="100.99" ry="18"/><text x="346.62" y="-13.8" font-family="Times,serif" font-size="14" text-anchor="middle">book.model.Book.builder</text></g><g id="edge3" class="edge"><title>book.model.Book.create-&gt;book.model.Book.builder</title><path fill="none" stroke="#000" d="M769.82,-77.5C757.76,-75.6 745.33,-73.7 733.62,-72 610.32,-54.13 578.96,-53.6 455.62,-36 447.01,-34.77 438.02,-33.44 429.07,-32.09"/><polygon fill="#000" stroke="#000" points="429.4 -28.6 418.99 -30.56 428.35 -35.52 429.4 -28.6"/></g><g id="node7" class="node"><title>book.model.Book.id</title><ellipse cx="547.62" cy="-18" fill="none" stroke="#000" rx="82.65" ry="18"/><text x="547.62" y="-13.8" font-family="Times,serif" font-size="14" text-anchor="middle">book.model.Book.id</text></g><g id="edge4" class="edge"><title>book.model.Book.create-&gt;book.model.Book.id</title><path fill="none" stroke="#000" d="M782.63,-75.34C733.3,-63.51 662.06,-46.43 610.96,-34.18"/><polygon fill="#000" stroke="#000" points="611.57 -30.73 601.02 -31.8 609.93 -37.54 611.57 -30.73"/></g><g id="node8" class="node"><title>book.model.Book.isbn</title><ellipse cx="738.62" cy="-18" fill="none" stroke="#000" rx="90.37" ry="18"/><text x="738.62" y="-13.8" font-family="Times,serif" font-size="14" text-anchor="middle">book.model.Book.isbn</text></g><g id="edge5" class="edge"><title>book.model.Book.create-&gt;book.model.Book.isbn</title><path fill="none" stroke="#000" d="M815.68,-72.41C802.23,-63.08 785.25,-51.32 770.66,-41.2"/><polygon fill="#000" stroke="#000" points="772.6 -38.29 762.38 -35.47 768.61 -44.04 772.6 -38.29"/></g><g id="node9" class="node"><title>book.model.Book.name</title><ellipse cx="941.62" cy="-18" fill="none" stroke="#000" rx="94.69" ry="18"/><text x="941.62" y="-13.8" font-family="Times,serif" font-size="14" text-anchor="middle">book.model.Book.name</text></g><g id="edge6" class="edge"><title>book.model.Book.create-&gt;book.model.Book.name</title><path fill="none" stroke="#000" d="M863.79,-72.41C877.38,-63.08 894.53,-51.32 909.27,-41.2"/><polygon fill="#000" stroke="#000" points="911.36 -44.01 917.62 -35.47 907.4 -38.24 911.36 -44.01"/></g><g id="node10" class="node"><title>book.model.Book.createdAt</title><ellipse cx="1164.62" cy="-18" fill="none" stroke="#000" rx="110.12" ry="18"/><text x="1164.62" y="-13.8" font-family="Times,serif" font-size="14" text-anchor="middle">book.model.Book.createdAt</text></g><g id="edge7" class="edge"><title>book.model.Book.create-&gt;book.model.Book.createdAt</title><path fill="none" stroke="#000" d="M900.37,-75.92C954.27,-64.31 1033.17,-47.31 1090.71,-34.92"/><polygon fill="#000" stroke="#000" points="1091.8 -38.27 1100.84 -32.74 1090.32 -31.42 1091.8 -38.27"/></g><g id="node11" class="node"><title>book.model.Book.build</title><ellipse cx="1386.62" cy="-18" fill="none" stroke="#000" rx="93.75" ry="18"/><text x="1386.62" y="-13.8" font-family="Times,serif" font-size="14" text-anchor="middle">book.model.Book.build</text></g><g id="edge8" class="edge"><title>book.model.Book.create-&gt;book.model.Book.build</title><path fill="none" stroke="#000" d="M921.6,-80.33C1010.81,-70.63 1157.57,-53.92 1283.62,-36 1291.87,-34.83 1300.49,-33.53 1309.06,-32.18"/><polygon fill="#000" stroke="#000" points="1309.77 -35.61 1319.09 -30.59 1308.67 -28.7 1309.77 -35.61"/></g><g id="edge10" class="edge"><title>book.BookService.createBook-&gt;book.BookFactory.create</title><path fill="none" stroke="#000" d="M731.62,-215.7C731.62,-207.98 731.62,-198.71 731.62,-190.11"/><polygon fill="#000" stroke="#000" points="735.12 -190.1 731.62 -180.1 728.12 -190.1 735.12 -190.1"/></g><g id="node13" class="node"><title>book.model.command.CreateBookCommand.getIsbn</title><ellipse cx="1047.62" cy="-162" fill="none" stroke="#000" rx="198.97" ry="18"/><text x="1047.62" y="-157.8" font-family="Times,serif" font-size="14" text-anchor="middle">book.model.command.CreateBookCommand.getIsbn</text></g><g id="edge11" class="edge"><title>book.BookService.createBook-&gt;book.model.command.CreateBookCommand.getIsbn</title><path fill="none" stroke="#000" d="M795.57,-218.83C844.7,-207.95 912.91,-192.84 965.99,-181.08"/><polygon fill="#000" stroke="#000" points="967.04 -184.43 976.05 -178.85 965.53 -177.6 967.04 -184.43"/></g><g id="node14" class="node"><title>book.model.command.CreateBookCommand.getName</title><ellipse cx="204.62" cy="-162" fill="none" stroke="#000" rx="204.74" ry="18"/><text x="204.62" y="-157.8" font-family="Times,serif" font-size="14" text-anchor="middle">book.model.command.CreateBookCommand.getName</text></g><g id="edge12" class="edge"><title>book.BookService.createBook-&gt;book.model.command.CreateBookCommand.getName</title><path fill="none" stroke="#000" d="M645.78,-221.6C557.8,-209.91 420.36,-191.66 322.28,-178.63"/><polygon fill="#000" stroke="#000" points="322.69 -175.15 312.32 -177.31 321.77 -182.09 322.69 -175.15"/></g><g id="node15" class="node"><title>book.BookRepository.save</title><ellipse cx="1369.62" cy="-162" fill="none" stroke="#000" rx="105.16" ry="18"/><text x="1369.62" y="-157.8" font-family="Times,serif" font-size="14" text-anchor="middle">book.BookRepository.save</text></g><g id="edge14" class="edge"><title>book.BookService.createBook-&gt;book.BookRepository.save</title><path fill="none" stroke="#000" d="M831.74,-224.29C937.32,-214.77 1108.41,-198.41 1255.62,-180 1264.98,-178.83 1274.75,-177.51 1284.48,-176.15"/><polygon fill="#000" stroke="#000" points="1285.16 -179.58 1294.57 -174.71 1284.18 -172.65 1285.16 -179.58"/></g><g id="node17" class="node"><title>book.model.Book.getId</title><ellipse cx="520.62" cy="-162" fill="none" stroke="#000" rx="93.73" ry="18"/><text x="520.62" y="-157.8" font-family="Times,serif" font-size="14" text-anchor="middle">book.model.Book.getId</text></g><g id="edge15" class="edge"><title>book.BookService.createBook-&gt;book.model.Book.getId</title><path fill="none" stroke="#000" d="M684.79,-217.46C652.41,-206.72 609.23,-192.4 575.27,-181.13"/><polygon fill="#000" stroke="#000" points="576.1 -177.72 565.51 -177.89 573.9 -184.36 576.1 -177.72"/></g><g id="node16" class="node"><title>book.BookMapper.doSave</title><ellipse cx="1369.62" cy="-90" fill="none" stroke="#000" rx="104.36" ry="18"/><text x="1369.62" y="-85.8" font-family="Times,serif" font-size="14" text-anchor="middle">book.BookMapper.doSave</text></g><g id="edge13" class="edge"><title>book.BookRepository.save-&gt;book.BookMapper.doSave</title><path fill="none" stroke="#000" d="M1363.7,-143.7C1362.91,-135.98 1362.68,-126.71 1363.02,-118.11"/><polygon fill="#000" stroke="#000" points="1366.52 -118.32 1363.72 -108.1 1359.54 -117.84 1366.52 -118.32"/></g><g id="edge24" class="edge"><title>book.BookRepository.save-&gt;book.BookMapper.doSave</title><path fill="none" stroke="#000" d="M1375.54,-143.7C1376.33,-135.98 1376.56,-126.71 1376.22,-118.11"/><polygon fill="#000" stroke="#000" points="1379.7 -117.84 1375.51 -108.1 1372.72 -118.32 1379.7 -117.84"/></g><g id="node18" class="node"><title>PUT /books/{id}</title><ellipse cx="2244.62" cy="-378" fill="none" stroke="#000" rx="70.06" ry="18"/><text x="2244.62" y="-373.8" font-family="Times,serif" font-size="14" text-anchor="middle">PUT /books/{id}</text></g><g id="node19" class="node"><title>book.BookController.updateBook</title><ellipse cx="2244.62" cy="-306" fill="none" stroke="#000" rx="129.96" ry="18"/><text x="2244.62" y="-301.8" font-family="Times,serif" font-size="14" text-anchor="middle">book.BookController.updateBook</text></g><g id="edge17" class="edge"><title>PUT /books/{id}-&gt;book.BookController.updateBook</title><path fill="none" stroke="#000" d="M2244.62,-359.7C2244.62,-351.98 2244.62,-342.71 2244.62,-334.11"/><polygon fill="#000" stroke="#000" points="2248.12 -334.1 2244.62 -324.1 2241.12 -334.1 2248.12 -334.1"/></g><g id="node23" class="node"><title>book.BookService.updateBook</title><ellipse cx="2244.62" cy="-234" fill="none" stroke="#000" rx="120.77" ry="18"/><text x="2244.62" y="-229.8" font-family="Times,serif" font-size="14" text-anchor="middle">book.BookService.updateBook</text></g><g id="edge28" class="edge"><title>book.BookController.updateBook-&gt;book.BookService.updateBook</title><path fill="none" stroke="#000" d="M2244.62,-287.7C2244.62,-279.98 2244.62,-270.71 2244.62,-262.11"/><polygon fill="#000" stroke="#000" points="2248.12 -262.1 2244.62 -252.1 2241.12 -262.1 2248.12 -262.1"/></g><g id="node20" class="node"><title>book.BookRepository.byId</title><ellipse cx="2651.62" cy="-162" fill="none" stroke="#000" rx="105.65" ry="18"/><text x="2651.62" y="-157.8" font-family="Times,serif" font-size="14" text-anchor="middle">book.BookRepository.byId</text></g><g id="node21" class="node"><title>book.BookMapper.byId</title><ellipse cx="2400.62" cy="-90" fill="none" stroke="#000" rx="94.72" ry="18"/><text x="2400.62" y="-85.8" font-family="Times,serif" font-size="14" text-anchor="middle">book.BookMapper.byId</text></g><g id="edge18" class="edge"><title>book.BookRepository.byId-&gt;book.BookMapper.byId</title><path fill="none" stroke="#000" d="M2594.96,-146.75C2553.92,-135.71 2498.74,-120.35 2457.62,-108.55"/><polygon fill="#000" stroke="#000" points="2458.33 -105.12 2447.75 -105.71 2456.39 -111.84 2458.33 -105.12"/></g><g id="edge34" class="edge"><title>book.BookRepository.byId-&gt;book.BookMapper.byId</title><path fill="none" stroke="#000" d="M2603.13,-145.9C2563.88,-134.56 2508.33,-119.06 2465.3,-107.42"/><polygon fill="#000" stroke="#000" points="2466.06 -103.99 2455.49 -104.77 2464.23 -110.75 2466.06 -103.99"/></g><g id="node22" class="node"><title>core.exception.NotFoundException.</title><ellipse cx="2651.62" cy="-90" fill="none" stroke="#000" rx="138.11" ry="18"/><text x="2651.62" y="-85.8" font-family="Times,serif" font-size="14" text-anchor="middle">core.exception.NotFoundException.</text></g><g id="edge19" class="edge"><title>book.BookRepository.byId-&gt;core.exception.NotFoundException.</title><path fill="none" stroke="#000" d="M2645.7,-143.7C2644.91,-135.98 2644.68,-126.71 2645.02,-118.11"/><polygon fill="#000" stroke="#000" points="2648.52 -118.32 2645.72 -108.1 2641.54 -117.84 2648.52 -118.32"/></g><g id="edge35" class="edge"><title>book.BookRepository.byId-&gt;core.exception.NotFoundException.</title><path fill="none" stroke="#000" d="M2657.54,-143.7C2658.33,-135.98 2658.56,-126.71 2658.22,-118.11"/><polygon fill="#000" stroke="#000" points="2661.7 -117.84 2657.51 -108.1 2654.72 -118.32 2661.7 -117.84"/></g><g id="edge25" class="edge"><title>book.BookService.updateBook-&gt;book.BookRepository.save</title><path fill="none" stroke="#000" d="M2131.07,-227.82C1982.29,-220.41 1713.42,-204.85 1484.62,-180 1474.58,-178.91 1464.08,-177.6 1453.68,-176.19"/><polygon fill="#000" stroke="#000" points="1454.13 -172.72 1443.75 -174.82 1453.17 -179.65 1454.13 -172.72"/></g><g id="edge20" class="edge"><title>book.BookService.updateBook-&gt;book.BookRepository.byId</title><path fill="none" stroke="#000" d="M2320.7,-219.92C2391.67,-207.71 2497.26,-189.55 2569.98,-177.04"/><polygon fill="#000" stroke="#000" points="2570.75 -180.46 2580.01 -175.32 2569.56 -173.56 2570.75 -180.46"/></g><g id="node24" class="node"><title>book.model.Book.save</title><ellipse cx="2436.62" cy="-162" fill="none" stroke="#000" rx="91.32" ry="18"/><text x="2436.62" y="-157.8" font-family="Times,serif" font-size="14" text-anchor="middle">book.model.Book.save</text></g><g id="edge21" class="edge"><title>book.BookService.updateBook-&gt;book.model.Book.save</title><path fill="none" stroke="#000" d="M2288.19,-217.12C2317.14,-206.56 2355.27,-192.66 2385.63,-181.59"/><polygon fill="#000" stroke="#000" points="2387 -184.82 2395.2 -178.1 2384.6 -178.24 2387 -184.82"/></g><g id="node25" class="node"><title>book.model.command.UpdateBookCommand.getIsbn</title><ellipse cx="1694.62" cy="-162" fill="none" stroke="#000" rx="201.39" ry="18"/><text x="1694.62" y="-157.8" font-family="Times,serif" font-size="14" text-anchor="middle">book.model.command.UpdateBookCommand.getIsbn</text></g><g id="edge22" class="edge"><title>book.BookService.updateBook-&gt;book.model.command.UpdateBookCommand.getIsbn</title><path fill="none" stroke="#000" d="M2155.95,-221.71C2063.62,-209.96 1918.38,-191.48 1815.56,-178.39"/><polygon fill="#000" stroke="#000" points="1815.79 -174.89 1805.43 -177.1 1814.91 -181.84 1815.79 -174.89"/></g><g id="node26" class="node"><title>book.model.command.UpdateBookCommand.getName</title><ellipse cx="2120.62" cy="-162" fill="none" stroke="#000" rx="207.16" ry="18"/><text x="2120.62" y="-157.8" font-family="Times,serif" font-size="14" text-anchor="middle">book.model.command.UpdateBookCommand.getName</text></g><g id="edge23" class="edge"><title>book.BookService.updateBook-&gt;book.model.command.UpdateBookCommand.getName</title><path fill="none" stroke="#000" d="M2215.23,-216.41C2198.65,-207.05 2177.7,-195.22 2159.74,-185.08"/><polygon fill="#000" stroke="#000" points="2161.09 -181.82 2150.66 -179.96 2157.64 -187.92 2161.09 -181.82"/></g><g id="node27" class="node"><title>book.model.Book.toRepresentation</title><ellipse cx="2916.62" cy="-162" fill="none" stroke="#000" rx="135.73" ry="18"/><text x="2916.62" y="-157.8" font-family="Times,serif" font-size="14" text-anchor="middle">book.model.Book.toRepresentation</text></g><g id="edge27" class="edge"><title>book.BookService.updateBook-&gt;book.model.Book.toRepresentation</title><path fill="none" stroke="#000" d="M2342.31,-223.43C2447.21,-213.06 2618.76,-195.88 2766.62,-180 2779.94,-178.57 2793.91,-177.03 2807.75,-175.49"/><polygon fill="#000" stroke="#000" points="2808.25 -178.96 2817.8 -174.37 2807.47 -172 2808.25 -178.96"/></g><g id="node28" class="node"><title>book.model.BookRepresentaion.</title><ellipse cx="2933.62" cy="-90" fill="none" stroke="#000" rx="126.06" ry="18"/><text x="2933.62" y="-85.8" font-family="Times,serif" font-size="14" text-anchor="middle">book.model.BookRepresentaion.</text></g><g id="edge26" class="edge"><title>book.model.Book.toRepresentation-&gt;book.model.BookRepresentaion.</title><path fill="none" stroke="#000" d="M2914.91,-143.7C2916,-135.9 2918.05,-126.51 2920.52,-117.83"/><polygon fill="#000" stroke="#000" points="2923.92 -118.69 2923.57 -108.1 2917.24 -116.6 2923.92 -118.69"/></g><g id="edge37" class="edge"><title>book.model.Book.toRepresentation-&gt;book.model.BookRepresentaion.</title><path fill="none" stroke="#000" d="M2926.74,-143.7C2929.41,-135.98 2931.88,-126.71 2933.63,-118.11"/><polygon fill="#000" stroke="#000" points="2937.11 -118.55 2935.36 -108.1 2930.21 -117.36 2937.11 -118.55"/></g><g id="node29" class="node"><title>GET /books/</title><ellipse cx="3176.62" cy="-378" fill="none" stroke="#000" rx="55.29" ry="18"/><text x="3176.62" y="-373.8" font-family="Times,serif" font-size="14" text-anchor="middle">GET /books/</text></g><g id="node30" class="node"><title>book.BookController.getBookList</title><ellipse cx="3176.62" cy="-306" fill="none" stroke="#000" rx="130.94" ry="18"/><text x="3176.62" y="-301.8" font-family="Times,serif" font-size="14" text-anchor="middle">book.BookController.getBookList</text></g><g id="edge29" class="edge"><title>GET /books/-&gt;book.BookController.getBookList</title><path fill="none" stroke="#000" d="M3176.62,-359.7C3176.62,-351.98 3176.62,-342.71 3176.62,-334.11"/><polygon fill="#000" stroke="#000" points="3180.12 -334.1 3176.62 -324.1 3173.12 -334.1 3180.12 -334.1"/></g><g id="node33" class="node"><title>book.BookService.getBooksLists</title><ellipse cx="3176.62" cy="-234" fill="none" stroke="#000" rx="128.51" ry="18"/><text x="3176.62" y="-229.8" font-family="Times,serif" font-size="14" text-anchor="middle">book.BookService.getBooksLists</text></g><g id="edge32" class="edge"><title>book.BookController.getBookList-&gt;book.BookService.getBooksLists</title><path fill="none" stroke="#000" d="M3176.62,-287.7C3176.62,-279.98 3176.62,-270.71 3176.62,-262.11"/><polygon fill="#000" stroke="#000" points="3180.12 -262.1 3176.62 -252.1 3173.12 -262.1 3180.12 -262.1"/></g><g id="node31" class="node"><title>book.BookRepository.list</title><ellipse cx="3176.62" cy="-162" fill="none" stroke="#000" rx="100.36" ry="18"/><text x="3176.62" y="-157.8" font-family="Times,serif" font-size="14" text-anchor="middle">book.BookRepository.list</text></g><g id="node32" class="node"><title>book.BookMapper.list</title><ellipse cx="3176.62" cy="-90" fill="none" stroke="#000" rx="89.42" ry="18"/><text x="3176.62" y="-85.8" font-family="Times,serif" font-size="14" text-anchor="middle">book.BookMapper.list</text></g><g id="edge30" class="edge"><title>book.BookRepository.list-&gt;book.BookMapper.list</title><path fill="none" stroke="#000" d="M3176.62,-143.7C3176.62,-135.98 3176.62,-126.71 3176.62,-118.11"/><polygon fill="#000" stroke="#000" points="3180.12 -118.1 3176.62 -108.1 3173.12 -118.1 3180.12 -118.1"/></g><g id="edge31" class="edge"><title>book.BookService.getBooksLists-&gt;book.BookRepository.list</title><path fill="none" stroke="#000" d="M3176.62,-215.7C3176.62,-207.98 3176.62,-198.71 3176.62,-190.11"/><polygon fill="#000" stroke="#000" points="3180.12 -190.1 3176.62 -180.1 3173.12 -190.1 3180.12 -190.1"/></g><g id="node34" class="node"><title>GET /books/{id}</title><ellipse cx="2771.62" cy="-378" fill="none" stroke="#000" rx="70.53" ry="18"/><text x="2771.62" y="-373.8" font-family="Times,serif" font-size="14" text-anchor="middle">GET /books/{id}</text></g><g id="node35" class="node"><title>book.BookController.getBookById</title><ellipse cx="2771.62" cy="-306" fill="none" stroke="#000" rx="134.8" ry="18"/><text x="2771.62" y="-301.8" font-family="Times,serif" font-size="14" text-anchor="middle">book.BookController.getBookById</text></g><g id="edge33" class="edge"><title>GET /books/{id}-&gt;book.BookController.getBookById</title><path fill="none" stroke="#000" d="M2771.62,-359.7C2771.62,-351.98 2771.62,-342.71 2771.62,-334.11"/><polygon fill="#000" stroke="#000" points="2775.12 -334.1 2771.62 -324.1 2768.12 -334.1 2775.12 -334.1"/></g><g id="node36" class="node"><title>book.BookService.getBookById</title><ellipse cx="2771.62" cy="-234" fill="none" stroke="#000" rx="125.6" ry="18"/><text x="2771.62" y="-229.8" font-family="Times,serif" font-size="14" text-anchor="middle">book.BookService.getBookById</text></g><g id="edge39" class="edge"><title>book.BookController.getBookById-&gt;book.BookService.getBookById</title><path fill="none" stroke="#000" d="M2771.62,-287.7C2771.62,-279.98 2771.62,-270.71 2771.62,-262.11"/><polygon fill="#000" stroke="#000" points="2775.12 -262.1 2771.62 -252.1 2768.12 -262.1 2775.12 -262.1"/></g><g id="edge36" class="edge"><title>book.BookService.getBookById-&gt;book.BookRepository.byId</title><path fill="none" stroke="#000" d="M2743.18,-216.41C2726.89,-206.91 2706.26,-194.88 2688.71,-184.64"/><polygon fill="#000" stroke="#000" points="2690.26 -181.49 2679.85 -179.47 2686.73 -187.53 2690.26 -181.49"/></g><g id="edge38" class="edge"><title>book.BookService.getBookById-&gt;book.model.Book.toRepresentation</title><path fill="none" stroke="#000" d="M2805.62,-216.59C2825.9,-206.79 2851.86,-194.26 2873.57,-183.78"/><polygon fill="#000" stroke="#000" points="2875.1 -186.93 2882.59 -179.43 2872.06 -180.63 2875.1 -186.93"/></g></g></svg>